<?xml version="1.0" encoding="UTF-8" standalone="no"?>
<svg
   xmlns:osb="http://www.openswatchbook.org/uri/2009/osb"
   xmlns:dc="http://purl.org/dc/elements/1.1/"
   xmlns:cc="http://creativecommons.org/ns#"
   xmlns:rdf="http://www.w3.org/1999/02/22-rdf-syntax-ns#"
   xmlns:svg="http://www.w3.org/2000/svg"
   xmlns="http://www.w3.org/2000/svg"
   xmlns:xlink="http://www.w3.org/1999/xlink"
   xmlns:sodipodi="http://sodipodi.sourceforge.net/DTD/sodipodi-0.dtd"
   xmlns:inkscape="http://www.inkscape.org/namespaces/inkscape"
   version="1.1"
   id="svg8859"
   viewBox="0 0 68.382283 68.38091"
   height="19.298613mm"
   width="19.299mm"
   inkscape:version="0.91 r13725"
   sodipodi:docname="REFRACT_square.svg">
  <sodipodi:namedview
     pagecolor="#ffffff"
     bordercolor="#666666"
     borderopacity="1"
     objecttolerance="10"
     gridtolerance="10"
     guidetolerance="10"
     inkscape:pageopacity="0"
     inkscape:pageshadow="2"
     inkscape:window-width="1595"
     inkscape:window-height="907"
     id="namedview21"
     showgrid="false"
     inkscape:zoom="3.4512556"
     inkscape:cx="-24.587288"
     inkscape:cy="34.190455"
     inkscape:window-x="0"
     inkscape:window-y="0"
     inkscape:window-maximized="0"
     inkscape:current-layer="svg8859" />
  <defs
     id="defs8861">
    <linearGradient
       y2="478.17188"
       x2="283.6543"
       y1="478.17188"
       x1="61.625"
       gradientTransform="translate(-41.008401,-466.35141)"
       gradientUnits="userSpaceOnUse"
       id="linearGradient6236-4"
       xlink:href="#linearGradient5062" />
    <linearGradient
       id="linearGradient5062">
      <stop
         id="stop5064"
         offset="0"
         style="stop-color:#919191;stop-opacity:1" />
      <stop
         id="stop5066"
         offset="1"
         style="stop-color:#505050;stop-opacity:1" />
    </linearGradient>
    <linearGradient
       y2="478.17188"
       x2="283.6543"
       y1="478.17188"
       x1="61.625"
       gradientTransform="translate(-227.09232,-466.35165)"
       gradientUnits="userSpaceOnUse"
       id="linearGradient6245-7"
       xlink:href="#linearGradient5062" />
    <linearGradient
       y2="129.26546"
       x2="37.063641"
       y1="237.22842"
       x1="143.83751"
       gradientTransform="matrix(0.98425058,0,0,1,-41.42148,-136.08045)"
       gradientUnits="userSpaceOnUse"
       id="linearGradient6156-0-5"
       xlink:href="#linearGradient4429" />
    <linearGradient
       id="linearGradient4429">
      <stop
         id="stop4431"
         offset="0"
         style="stop-color:#fff9e3;stop-opacity:1" />
      <stop
         style="stop-color:#ffaf59;stop-opacity:1"
         offset="0.25"
         id="stop4441" />
      <stop
         style="stop-color:#d2782a;stop-opacity:1"
         offset="0.5"
         id="stop4437" />
      <stop
         id="stop4439"
         offset="0.75"
         style="stop-color:#6a0ab8;stop-opacity:1" />
      <stop
         id="stop4433"
         offset="1"
         style="stop-color:#0ba4f6;stop-opacity:1" />
    </linearGradient>
    <linearGradient
       id="linearGradient4333"
       osb:paint="solid"
       gradientTransform="matrix(0.2474121,0,0,0.66215996,-98.90008,-360.35411)">
      <stop
         style="stop-color:#fff9e3;stop-opacity:1;"
         offset="0"
         id="stop4335" />
    </linearGradient>
  </defs>
  <metadata
     id="metadata8864">
    <rdf:RDF>
      <cc:Work
         rdf:about="">
        <dc:format>image/svg+xml</dc:format>
        <dc:type
           rdf:resource="http://purl.org/dc/dcmitype/StillImage" />
        <dc:title />
      </cc:Work>
    </rdf:RDF>
  </metadata>
  <rect
     style="color:#000000;clip-rule:nonzero;display:inline;overflow:visible;visibility:visible;opacity:1;isolation:auto;mix-blend-mode:normal;color-interpolation:sRGB;color-interpolation-filters:linearRGB;solid-color:#000000;solid-opacity:1;fill:url(#linearGradient4333);fill-opacity:1;fill-rule:nonzero;stroke:none;stroke-width:2;stroke-linecap:butt;stroke-linejoin:miter;stroke-miterlimit:4;stroke-dasharray:none;stroke-dashoffset:0;stroke-opacity:1;color-rendering:auto;image-rendering:auto;shape-rendering:auto;text-rendering:auto;enable-background:accumulate"
     id="rect4978"
     width="68.382004"
     height="68.380997"
     x="0.00013810791"
     y="-4.3352051e-05"
     inkscape:export-xdpi="203"
     inkscape:export-ydpi="203" />
  <path
     inkscape:connector-curvature="0"
     style="color:#000000;font-style:normal;font-variant:normal;font-weight:normal;font-stretch:normal;font-size:medium;line-height:normal;font-family:sans-serif;text-indent:0;text-align:start;text-decoration:none;text-decoration-line:none;text-decoration-style:solid;text-decoration-color:#000000;letter-spacing:normal;word-spacing:normal;text-transform:none;direction:ltr;block-progression:tb;writing-mode:lr-tb;baseline-shift:baseline;text-anchor:start;white-space:normal;clip-rule:nonzero;display:inline;overflow:visible;visibility:visible;opacity:1;isolation:auto;mix-blend-mode:normal;color-interpolation:sRGB;color-interpolation-filters:linearRGB;solid-color:#000000;solid-opacity:1;fill:url(#linearGradient6156-0-5);fill-opacity:1;fill-rule:nonzero;stroke:none;stroke-width:2;stroke-linecap:butt;stroke-linejoin:miter;stroke-miterlimit:4;stroke-dasharray:none;stroke-dashoffset:0;stroke-opacity:1;color-rendering:auto;image-rendering:auto;shape-rendering:auto;text-rendering:auto;enable-background:accumulate"
     d="m 0,5e-5 0,0.88477 0,67.49609 68.38228,-0.002 0,-68.37891 z m 7.0866,7.08587 54.20907,0 0,54.20904 -54.20907,0 z"
     id="rect5885-4-6" />
  <path
     inkscape:connector-curvature="0"
     style="color:#000000;font-style:normal;font-variant:normal;font-weight:normal;font-stretch:normal;font-size:63.81852722px;line-height:125%;font-family:Abel;-inkscape-font-specification:'Abel, Normal';text-align:start;letter-spacing:0px;word-spacing:0px;writing-mode:lr-tb;text-anchor:start;clip-rule:nonzero;display:inline;overflow:visible;visibility:visible;opacity:1;isolation:auto;mix-blend-mode:normal;color-interpolation:sRGB;color-interpolation-filters:linearRGB;solid-color:#000000;solid-opacity:1;fill:url(#linearGradient6236-4);fill-opacity:1;fill-rule:nonzero;stroke:none;stroke-width:1px;stroke-linecap:butt;stroke-linejoin:miter;stroke-miterlimit:4;stroke-dasharray:none;stroke-dashoffset:0;stroke-opacity:1;color-rendering:auto;image-rendering:auto;shape-rendering:auto;text-rendering:auto;enable-background:accumulate"
     d="m 21.608779,11.81945 0,0.002 a 0.99280549,0.99280549 0 0 0 -0.99218,0.99214 l 0,42.75586 a 0.99280549,0.99280549 0 0 0 0.99218,0.99219 l 3.84766,0 a 0.99280549,0.99280549 0 0 0 0.99219,-0.99219 l 0,-17.25391 3.73828,0 11.30664,17.78711 a 0.99280549,0.99280549 0 0 0 0.83789,0.45899 l 4.44141,0 a 0.99280549,0.99280549 0 0 0 0.83789,-1.52539 L 36.780659,37.99718 c 0.97236,-0.13552 1.97022,-0.18881 2.86523,-0.5664 a 0.99280549,0.99280549 0 0 0 0.0137,-0.006 c 1.37977,-0.60366 2.60092,-1.43295 3.64258,-2.47461 1.04411,-1.04412 1.86332,-2.27012 2.44727,-3.6543 0.60788,-1.41384 0.91406,-2.92449 0.91406,-4.5 l 0,-3.45898 c 0,-1.5755 -0.30602,-3.0796 -0.91602,-4.47656 -0.58293,-1.39976 -1.40086,-2.63718 -2.44531,-3.68164 -1.04396,-1.04396 -2.27145,-1.85961 -3.6543,-2.44336 l -0.002,-0.002 c -1.39545,-0.60843 -2.89723,-0.91407 -4.4707,-0.91406 l -13.5664,0 z m 4.83985,5.6543 8.54687,0 c 0.82893,0 1.5686,0.15224 2.25391,0.45312 a 0.99280549,0.99280549 0 0 0 0.01,0.004 c 0.72132,0.30913 1.32922,0.72832 1.85351,1.26953 a 0.99280549,0.99280549 0 0 0 0.0117,0.01 c 0.52555,0.52554 0.94066,1.1389 1.25196,1.86524 a 0.99280549,0.99280549 0 0 0 0.004,0.01 c 0.30035,0.68414 0.45312,1.42367 0.45312,2.25391 l 0,3.45899 c 10e-6,0.82814 -0.15286,1.58187 -0.45507,2.28906 -0.31009,0.70509 -0.72933,1.32014 -1.26172,1.87109 -0.52426,0.52278 -1.13375,0.9379 -1.85743,1.24805 a 0.99280549,0.99280549 0 0 0 -0.01,0.004 c -0.68415,0.30036 -1.42368,0.45313 -2.2539,0.45313 l -8.54688,0 0,-15.18945 z"
     id="path6234-5" />
</svg>
